<?xml version="1.0" standalone="no"?>
<!DOCTYPE svg PUBLIC "-//W3C//DTD SVG 20010904//EN"
 "http://www.w3.org/TR/2001/REC-SVG-20010904/DTD/svg10.dtd">
<svg version="1.0" xmlns="http://www.w3.org/2000/svg"
 width="120.000000pt" height="120.000000pt" viewBox="0 0 120.000000 120.000000"
 preserveAspectRatio="xMidYMid meet">

<g transform="translate(0.000000,120.000000) scale(0.100000,-0.100000)"
fill="#000000" stroke="none">
<path d="M625 887 c-22 -8 -54 -21 -70 -29 -43 -22 -131 -119 -151 -165 -9
-21 -24 -52 -32 -69 -10 -21 -13 -51 -10 -97 4 -64 3 -68 -19 -73 -52 -13 -97
54 -58 86 29 24 7 21 -32 -4 -61 -40 -78 -78 -77 -166 1 -54 7 -89 22 -124 12
-27 21 -50 20 -51 -2 -1 -14 -8 -27 -15 -33 -17 -12 -35 69 -57 55 -15 106
-18 335 -18 283 0 374 10 418 45 l21 17 -25 16 c-25 16 -159 47 -204 47 -24 0
-26 3 -20 30 8 36 7 36 -120 11 -83 -17 -92 -17 -110 -2 -18 15 -18 14 1 -9
31 -37 35 -56 15 -74 -15 -14 -18 -13 -36 20 -10 19 -18 41 -18 49 0 12 -4 12
-21 -4 -25 -22 -47 -20 -74 7 -18 18 -19 26 -11 56 9 31 14 36 41 36 l31 0 -7
50 c-4 27 -5 50 -2 50 22 0 56 -23 56 -38 0 -10 3 -21 6 -24 6 -7 244 70 257
82 5 4 4 17 -2 29 -11 20 -9 21 25 21 80 0 155 60 170 138 6 27 -1 38 -57 99
-35 37 -77 84 -93 103 -27 33 -32 35 -100 37 -39 2 -89 -3 -111 -10z m74 -122
c16 -8 34 -28 41 -45 26 -62 -33 -130 -101 -115 -76 17 -89 126 -19 162 32 16
45 16 79 -2z"/>
<path d="M620 690 c0 -15 5 -20 18 -18 9 2 17 10 17 18 0 8 -8 16 -17 18 -13
2 -18 -3 -18 -18z"/>
<path d="M446 262 c-3 -5 1 -9 9 -9 8 0 12 4 9 9 -3 4 -7 8 -9 8 -2 0 -6 -4
-9 -8z"/>
</g>
</svg>
