<?xml version="1.0" encoding="UTF-8"?>
<svg version="1.1" xmlns="http://www.w3.org/2000/svg" width="120" height="120">
<path d="M0 0 C2.83354245 1.94458796 5.03801686 2.0482452 8.44140625 2.37890625 C14.23829255 3.18656232 19.00550231 4.19651169 23.19140625 8.50390625 C23.87758973 10.33372887 24.55202256 12.17199256 25.08984375 14.05078125 C28.06570708 20.67788116 34.2887739 26.76769802 39.5078125 31.6875 C41.19140625 33.50390625 41.19140625 33.50390625 41.69140625 36.81640625 C41.10579015 41.13532496 40.1653999 44.31802501 37.19140625 47.50390625 C32.35941791 50.73881244 28.08058014 52.85156768 22.19140625 52.50390625 C22.19140625 53.16390625 22.19140625 53.82390625 22.19140625 54.50390625 C22.73925781 54.30152344 23.28710938 54.09914062 23.8515625 53.890625 C32.51818214 51.36814546 39.14703616 54.30760987 47.19140625 57.50390625 C46.66603217 61.57200554 45.57740164 63.67994081 42.81640625 66.69140625 C42.21054688 67.36558594 41.6046875 68.03976563 40.98046875 68.734375 C37.92906147 71.75246998 35.38012393 72.84709658 31.25390625 73.62890625 C30.39925781 73.79648438 29.54460937 73.9640625 28.6640625 74.13671875 C26.19140625 74.50390625 26.19140625 74.50390625 22.19140625 74.50390625 C21.86140625 76.15390625 21.53140625 77.80390625 21.19140625 79.50390625 C21.94164062 79.54128906 22.691875 79.57867187 23.46484375 79.6171875 C31.03820638 80.10363774 38.32769524 81.07205075 45.19140625 84.50390625 C45.12890625 86.81640625 45.12890625 86.81640625 44.19140625 89.50390625 C25.16992702 100.91679379 -12.02144784 97.57016088 -33.00390625 92.7734375 C-39.30822246 91.00427754 -39.30822246 91.00427754 -41.80859375 88.50390625 C-41.62109375 86.44140625 -41.62109375 86.44140625 -40.80859375 84.50390625 C-39.32359375 84.00890625 -39.32359375 84.00890625 -37.80859375 83.50390625 C-38.01355469 82.89804688 -38.21851563 82.2921875 -38.4296875 81.66796875 C-41.12998099 73.26992678 -43.31161694 65.15498731 -40.02734375 56.625 C-37.82083649 52.78482872 -34.69689065 49.63836481 -30.80859375 47.50390625 C-28.5546875 47.82421875 -28.5546875 47.82421875 -26.80859375 48.50390625 C-27.30359375 49.08140625 -27.79859375 49.65890625 -28.30859375 50.25390625 C-30.17839388 52.60791254 -30.17839388 52.60791254 -29.80859375 56.50390625 C-27.16859375 56.83390625 -24.52859375 57.16390625 -21.80859375 57.50390625 C-22.13859375 56.51390625 -22.46859375 55.52390625 -22.80859375 54.50390625 C-22.92788395 52.50648889 -22.9838331 50.50484501 -22.99609375 48.50390625 C-23.01027344 47.45203125 -23.02445313 46.40015625 -23.0390625 45.31640625 C-22.80859375 42.50390625 -22.80859375 42.50390625 -20.80859375 39.50390625 C-21.21454589 34.84574944 -21.21454589 34.84574944 -22.80859375 30.50390625 C-22.86777072 26.9310969 -22.82946528 23.37284948 -22.76953125 19.80078125 C-22.76179688 19.05570313 -22.7540625 18.310625 -22.74609375 17.54296875 C-22.73449219 16.86443848 -22.72289063 16.1859082 -22.7109375 15.48681641 C-22.7397192 13.45473127 -22.7397192 13.45473127 -23.390625 11.36865234 C-23.52855469 10.75328613 -23.66648437 10.13791992 -23.80859375 9.50390625 C-22.55859375 7.62890625 -22.55859375 7.62890625 -20.80859375 5.50390625 C-20.43734375 4.47265625 -20.06609375 3.44140625 -19.68359375 2.37890625 C-17.59138317 -0.82914997 -17.09735675 -1.05190195 -13.55859375 -1.93359375 C-8.83154617 -2.68684686 -3.88788404 -3.21611142 0 0 Z " fill="#86143C" transform="translate(57.80859375,16.49609375)"/>
<path d="M0 0 C1.12148437 -0.01417969 2.24296875 -0.02835938 3.3984375 -0.04296875 C8.52798641 0.3234276 11.19324504 1.49978937 14.59765625 5.3046875 C15.63738191 6.54918759 16.6671119 7.80209608 17.6875 9.0625 C18.71857469 10.31111729 19.75109379 11.55854344 20.78515625 12.8046875 C21.26936035 13.39386963 21.75356445 13.98305176 22.25244141 14.59008789 C23.72305716 16.35418387 23.72305716 16.35418387 25.96484375 18.42578125 C27.625 20.1875 27.625 20.1875 28.125 23.5 C27.38665296 28.94530939 25.89173389 32.28998668 21.73046875 35.7734375 C11.83561299 41.87554616 -0.93968172 39.05254748 -11.6875 36.5625 C-18.81652454 34.73267904 -25.65171463 31.90688179 -31.375 27.1875 C-32.56434419 24.70969961 -32.55234641 23.70306441 -31.66015625 21.109375 C-24.83033685 8.97717185 -14.43116788 0.08255817 0 0 Z " fill="#040306" transform="translate(71.375,29.8125)"/>
<path d="M0 0 C0.57621094 0.22429687 1.15242188 0.44859375 1.74609375 0.6796875 C1.25109375 1.2571875 0.75609375 1.8346875 0.24609375 2.4296875 C-1.62370638 4.78369379 -1.62370638 4.78369379 -1.25390625 8.6796875 C1.71609375 9.1746875 1.71609375 9.1746875 4.74609375 9.6796875 C4.74609375 10.3396875 4.74609375 10.9996875 4.74609375 11.6796875 C2.75919644 13.03246865 0.75864157 14.36537055 -1.25390625 15.6796875 C-1.58390625 16.3396875 -1.91390625 16.9996875 -2.25390625 17.6796875 C-1.69703125 17.9065625 -1.14015625 18.1334375 -0.56640625 18.3671875 C2.37905874 20.0389379 4.3893356 22.26249965 6.74609375 24.6796875 C7.73609375 25.3396875 8.72609375 25.9996875 9.74609375 26.6796875 C9.74609375 27.3396875 9.74609375 27.9996875 9.74609375 28.6796875 C10.32359375 28.9684375 10.90109375 29.2571875 11.49609375 29.5546875 C13.74609375 30.6796875 13.74609375 30.6796875 15.74609375 31.9296875 C16.40609375 32.1771875 17.06609375 32.4246875 17.74609375 32.6796875 C19.06609375 32.0196875 20.38609375 31.3596875 21.74609375 30.6796875 C23.06609375 33.3196875 24.38609375 35.9596875 25.74609375 38.6796875 C26.73609375 38.0196875 27.72609375 37.3596875 28.74609375 36.6796875 C28.99630945 33.59602879 28.99630945 33.59602879 28.74609375 30.6796875 C35.65538689 27.70606767 43.21548303 26.27262746 50.74609375 26.6796875 C50.25109375 29.1546875 50.25109375 29.1546875 49.74609375 31.6796875 C50.49632812 31.71707031 51.2465625 31.75445312 52.01953125 31.79296875 C59.59289388 32.27941899 66.88238274 33.247832 73.74609375 36.6796875 C73.68359375 38.9921875 73.68359375 38.9921875 72.74609375 41.6796875 C53.72461452 53.09257504 16.53323966 49.74594213 -4.44921875 44.94921875 C-10.75353496 43.18005879 -10.75353496 43.18005879 -13.25390625 40.6796875 C-13.06640625 38.6171875 -13.06640625 38.6171875 -12.25390625 36.6796875 C-10.76890625 36.1846875 -10.76890625 36.1846875 -9.25390625 35.6796875 C-9.45886719 35.07382813 -9.66382813 34.46796875 -9.875 33.84375 C-12.57529349 25.44570803 -14.75692944 17.33076856 -11.47265625 8.80078125 C-9.17096766 4.79495783 -5.02190901 -0.71368551 0 0 Z " fill="#040207" transform="translate(29.25390625,64.3203125)"/>
<path d="M0 0 C2.83354245 1.94458796 5.03801686 2.0482452 8.44140625 2.37890625 C13.96105578 3.13723648 19.38846365 4.10274797 23.19140625 8.50390625 C23.89453125 11.67578125 23.89453125 11.67578125 24.19140625 14.50390625 C23.08023438 14.4575 21.9690625 14.41109375 20.82421875 14.36328125 C9.07087461 14.0128102 1.14107118 14.89057268 -8.12109375 22.75390625 C-12.22799791 26.65384831 -15.10331061 30.54422049 -17.80859375 35.50390625 C-20.80859375 34.50390625 -20.80859375 34.50390625 -21.9921875 32.97265625 C-23.19246352 29.34311345 -22.97681641 25.77788488 -22.87109375 22.00390625 C-22.6151807 16.63875405 -22.6151807 16.63875405 -23.38842773 11.37304688 C-23.59640991 10.44782227 -23.59640991 10.44782227 -23.80859375 9.50390625 C-22.55859375 7.62890625 -22.55859375 7.62890625 -20.80859375 5.50390625 C-20.43734375 4.47265625 -20.06609375 3.44140625 -19.68359375 2.37890625 C-17.59138317 -0.82914997 -17.09735675 -1.05190195 -13.55859375 -1.93359375 C-8.83154617 -2.68684686 -3.88788404 -3.21611142 0 0 Z " fill="#93AFDD" transform="translate(57.80859375,16.49609375)"/>
<path d="M0 0 C-0.52537408 4.06809929 -1.61400461 6.17603456 -4.375 9.1875 C-5.28378906 10.19876953 -5.28378906 10.19876953 -6.2109375 11.23046875 C-12.59453064 17.54437201 -23.23987519 17.41806479 -31.75 18.625 C-32.65621094 18.7590625 -33.56242187 18.893125 -34.49609375 19.03125 C-39.03730832 19.68094201 -43.39818187 20.16761589 -48 20 C-48.33 17.03 -48.66 14.06 -49 11 C-49.66 11 -50.32 11 -51 11 C-51 9.68 -51 8.36 -51 7 C-47.2318169 5.65909207 -43.46004479 4.3285821 -39.6875 3 C-38.61564453 2.6184375 -37.54378906 2.236875 -36.43945312 1.84375 C-35.41142578 1.4828125 -34.38339844 1.121875 -33.32421875 0.75 C-32.37635498 0.41484375 -31.42849121 0.0796875 -30.4519043 -0.265625 C-28 -1 -28 -1 -25 -1 C-25 -1.66 -25 -2.32 -25 -3 C-16.09810432 -6.25261573 -8.49080187 -3.53912765 0 0 Z " fill="#7488C7" transform="translate(105,74)"/>
<path d="M0 0 C5.80259273 -0.47303745 10.79446386 0.42457791 16.375 1.9375 C17.08527344 2.11990234 17.79554687 2.30230469 18.52734375 2.49023438 C23.65749008 3.82874504 23.65749008 3.82874504 26 5 C25.9375 7.3125 25.9375 7.3125 25 10 C5.97852077 21.41288754 -31.21285409 18.06625463 -52.1953125 13.26953125 C-58.49962871 11.50037129 -58.49962871 11.50037129 -61 9 C-60.8125 6.9375 -60.8125 6.9375 -60 5 C-59.01 4.67 -58.02 4.34 -57 4 C-56.67 3.34 -56.34 2.68 -56 2 C-55.113125 2.78375 -54.22625 3.5675 -53.3125 4.375 C-45.53085056 10.81122407 -35.81636732 10.2230678 -26.1875 10.3125 C-24.64352539 10.35600586 -24.64352539 10.35600586 -23.06835938 10.40039062 C-16.13216257 10.4574245 -10.04270396 9.63012346 -4 6 C-2.948125 4.39125 -2.948125 4.39125 -1.875 2.75 C-1.25625 1.8425 -0.6375 0.935 0 0 Z " fill="#5254B9" transform="translate(77,96)"/>
<path d="M0 0 C-1.33657024 2.90336311 -2.84722571 5.2102811 -4.9375 7.625 C-5.44152344 8.21539062 -5.94554687 8.80578125 -6.46484375 9.4140625 C-12.51045631 15.65965716 -23.55539809 15.46281333 -31.75 16.625 C-32.65621094 16.7590625 -33.56242187 16.893125 -34.49609375 17.03125 C-39.03730832 17.68094201 -43.39818187 18.16761589 -48 18 C-48.33 15.69 -48.66 13.38 -49 11 C-48.31711914 10.84442627 -47.63423828 10.68885254 -46.93066406 10.52856445 C-34.27279 7.63972804 -21.62435921 4.74049498 -9.05761719 1.47387695 C-5.96205934 0.67964788 -3.21033862 0 0 0 Z " fill="#A5B8EC" transform="translate(105,76)"/>
<path d="M0 0 C2.97 0.495 2.97 0.495 6 1 C6.33 3.97 6.66 6.94 7 10 C7.66 10 8.32 10 9 10 C9.33 12.97 9.66 15.94 10 19 C10.99 19.33 11.98 19.66 13 20 C12.34 20 11.68 20 11 20 C11.33 21.98 11.66 23.96 12 26 C10.68 26.99 9.36 27.98 8 29 C5.525 25.04 5.525 25.04 3 21 C1.35 21.66 -0.3 22.32 -2 23 C-4.5625 21 -4.5625 21 -7 18 C-7.14963532 15.10883176 -6.63149193 12.86600184 -6 10 C-3.69 10 -1.38 10 1 10 C0.67 6.7 0.34 3.4 0 0 Z " fill="#A17834" transform="translate(47,75)"/>
<path d="M0 0 C-0.33 1.65 -0.66 3.3 -1 5 C-1.66 5 -2.32 5 -3 5 C-3.268125 5.763125 -3.53625 6.52625 -3.8125 7.3125 C-5.24656353 10.55801219 -6.66169683 12.31429319 -9.83544922 13.94042969 C-16.316539 16.20405116 -22.30410206 16.38557064 -29.125 16.25 C-30.69314453 16.24226563 -30.69314453 16.24226563 -32.29296875 16.234375 C-37.62235645 16.18047475 -42.74929437 15.92222025 -48 15 C-48 14.67 -48 14.34 -48 14 C-47.43079834 14.00523682 -46.86159668 14.01047363 -46.27514648 14.01586914 C-43.66260917 14.03682887 -41.05008963 14.04972004 -38.4375 14.0625 C-37.54224609 14.07087891 -36.64699219 14.07925781 -35.72460938 14.08789062 C-30.70002057 14.10629571 -25.95182709 13.86266398 -21 13 C-20.67 11.35 -20.34 9.7 -20 8 C-20.66 7.67 -21.32 7.34 -22 7 C-22 6.01 -22 5.02 -22 4 C-15.09070686 1.02638017 -7.53061072 -0.40706004 0 0 Z " fill="#070713" transform="translate(80,91)"/>
<path d="M0 0 C3 2.125 3 2.125 5 5 C5.15762308 9.41344632 4.4489533 11.39711986 1.8125 14.9375 C-1 17 -1 17 -4 17.5625 C-7.65907504 16.87642343 -9.35167676 15.57265686 -12 13 C-13.42662219 10.14675563 -13.31033868 8.16545451 -13 5 C-9.11365048 -0.82952428 -6.83189934 -1.62112866 0 0 Z " fill="#E2E2E2" transform="translate(70,43)"/>
<path d="M0 0 C0.66 0.33 1.32 0.66 2 1 C2.625 3.5625 2.625 3.5625 3 6 C2.01 6.66 1.02 7.32 0 8 C-0.58592634 11.11610554 -0.58592634 11.11610554 -0.6875 14.625 C-0.75324219 15.81351563 -0.81898437 17.00203125 -0.88671875 18.2265625 C-0.92410156 19.14179687 -0.96148437 20.05703125 -1 21 C-0.34 21 0.32 21 1 21 C1 21.99 1 22.98 1 24 C1.99 24.33 2.98 24.66 4 25 C3.34 25.66 2.68 26.32 2 27 C1.01 27 0.02 27 -1 27 C1.31 27.66 3.62 28.32 6 29 C6 29.66 6 30.32 6 31 C6.99 31.33 7.98 31.66 9 32 C6.525 32.495 6.525 32.495 4 33 C3.34 35.64 2.68 38.28 2 41 C1.67 40.34 1.34 39.68 1 39 C0.4225 38.731875 -0.155 38.46375 -0.75 38.1875 C-3.7216123 36.61914906 -5.66435301 34.39553538 -8 32 C-8.99 31.34 -9.98 30.68 -11 30 C-9.86280581 26.58841744 -8.95657056 25.88145399 -6 24 C-5.34 24 -4.68 24 -4 24 C-4 23.34 -4 22.68 -4 22 C-3.34 22 -2.68 22 -2 22 C-2.33 21.01 -2.66 20.02 -3 19 C-3.53524715 11.95944139 -3.40918098 6.25016514 0 0 Z " fill="#6D0A2A" transform="translate(38,52)"/>
<path d="M0 0 C0 0.99 0 1.98 0 3 C-0.83402344 3.10054687 -1.66804688 3.20109375 -2.52734375 3.3046875 C-12.00502361 4.88972903 -16.40105298 8.28878873 -22 16 C-23.5625 14.25 -23.5625 14.25 -25 12 C-24.8125 10.0390625 -24.8125 10.0390625 -24 8 C-23.71125 7.24460937 -23.4225 6.48921875 -23.125 5.7109375 C-20.18323956 -0.3973012 -20.18323956 -0.3973012 -16.9140625 -2.0625 C-10.91473033 -3.53673862 -5.24801648 -3.49867765 0 0 Z " fill="#E9F2FD" transform="translate(59,17)"/>
<path d="M0 0 C0.53367187 0.40992187 1.06734375 0.81984375 1.6171875 1.2421875 C2.73480469 2.05042969 2.73480469 2.05042969 3.875 2.875 C4.59429688 3.40867187 5.31359375 3.94234375 6.0546875 4.4921875 C13.89244188 8.50461879 22.63687119 8.28952584 31.25 8.1875 C32.29929688 8.18685547 33.34859375 8.18621094 34.4296875 8.18554688 C39.38827725 8.15730174 44.12972679 8.04962785 49 7 C49.495 8.98 49.495 8.98 50 11 C47.00421196 12.49789402 44.35592581 12.00082655 41.0234375 11.87890625 C40.33819 11.85529526 39.6529425 11.83168427 38.94692993 11.80735779 C36.75607584 11.73072143 34.56557528 11.64669754 32.375 11.5625 C30.89064236 11.50927924 29.40626741 11.45653884 27.921875 11.40429688 C24.28103263 11.2751067 20.64047156 11.13928926 17 11 C17 10.34 17 9.68 17 9 C12.05 9 7.1 9 2 9 C1.67 7.68 1.34 6.36 1 5 C0.01 4.67 -0.98 4.34 -2 4 C-1.34 2.68 -0.68 1.36 0 0 Z " fill="#5255AD" transform="translate(20,98)"/>
<path d="M0 0 C2.97 0.495 2.97 0.495 6 1 C6.33872513 2.41538717 6.67074624 3.83237963 7 5.25 C7.185625 6.03890625 7.37125 6.8278125 7.5625 7.640625 C8 10 8 10 8 14 C0.575 15.485 0.575 15.485 -7 17 C-6.67 14.69 -6.34 12.38 -6 10 C-3.69 10 -1.38 10 1 10 C0.67 6.7 0.34 3.4 0 0 Z " fill="#CE9441" transform="translate(47,75)"/>
<path d="M0 0 C2.2893323 1.14466615 3.15392551 2.15392551 5 4 C4.67 4.99 4.34 5.98 4 7 C5.2065625 6.7215625 5.2065625 6.7215625 6.4375 6.4375 C10.78253084 5.90389972 14.68989724 6.3774296 19 7 C19 7.99 19 8.98 19 10 C19.56509277 9.98952637 20.13018555 9.97905273 20.71240234 9.96826172 C23.26655653 9.92675212 25.82063982 9.9006904 28.375 9.875 C29.26445313 9.85824219 30.15390625 9.84148437 31.0703125 9.82421875 C31.92109375 9.81777344 32.771875 9.81132813 33.6484375 9.8046875 C34.82672119 9.78897705 34.82672119 9.78897705 36.02880859 9.77294922 C38 10 38 10 40 12 C27.09970064 12.40383546 12.06001206 12.27790462 0 7 C-0.66 6.34 -1.32 5.68 -2 5 C-1.46428571 1.46428571 -1.46428571 1.46428571 0 0 Z " fill="#535ACD" transform="translate(18,100)"/>
<path d="M0 0 C1.42258812 3.82320557 2.24042276 6.91281305 2 11 C1.01 10.67 0.02 10.34 -1 10 C-1 8.68 -1 7.36 -1 6 C-3.475 5.01 -3.475 5.01 -6 4 C-6 4.66 -6 5.32 -6 6 C-7.65 6 -9.3 6 -11 6 C-11.66 4.68 -12.32 3.36 -13 2 C-11.58461283 1.66127487 -10.16762037 1.32925376 -8.75 1 C-7.56664062 0.7215625 -7.56664062 0.7215625 -6.359375 0.4375 C-4 0 -4 0 0 0 Z " fill="#B37F2C" transform="translate(55,89)"/>
<path d="M0 0 C0.33 2.97 0.66 5.94 1 9 C-0.62318979 9.36237263 -2.2486358 9.71465157 -3.875 10.0625 C-4.77992187 10.25972656 -5.68484375 10.45695312 -6.6171875 10.66015625 C-9 11 -9 11 -11 10 C-11 8.68 -11 7.36 -11 6 C-8.69 6 -6.38 6 -4 6 C-3.814375 4.7934375 -3.814375 4.7934375 -3.625 3.5625 C-3.41875 2.716875 -3.2125 1.87125 -3 1 C-1 0 -1 0 0 0 Z " fill="#CB9F37" transform="translate(54,80)"/>
<path d="M0 0 C3.79242669 0.47327419 7.58378611 0.95461435 11.375 1.4375 C12.99535156 1.63956055 12.99535156 1.63956055 14.6484375 1.84570312 C15.6796875 1.97783203 16.7109375 2.10996094 17.7734375 2.24609375 C18.72653809 2.36654053 19.67963867 2.4869873 20.66162109 2.61108398 C23 3 23 3 25 4 C25 5.32 25 6.64 25 8 C23.68 8.33 22.36 8.66 21 9 C20.67 7.35 20.34 5.7 20 4 C15.38 4.33 10.76 4.66 6 5 C6 4.01 6 3.02 6 2 C4.35 2 2.7 2 1 2 C0.67 1.34 0.34 0.68 0 0 Z " fill="#74193C" transform="translate(55,65)"/>
<path d="M0 0 C0.33 0 0.66 0 1 0 C2 7.625 2 7.625 2 11 C-0.5 13.6875 -0.5 13.6875 -3 16 C-5.09230769 12.55384615 -5.09230769 12.55384615 -4.6875 10.125 C-3.956243 7.86475109 -3.02748274 5.85964401 -1.9375 3.75 C-1.57527344 3.04359375 -1.21304688 2.3371875 -0.83984375 1.609375 C-0.56269531 1.07828125 -0.28554688 0.5471875 0 0 Z " fill="#DAE1FB" transform="translate(39,17)"/>
<path d="M0 0 C-0.33 2.31 -0.66 4.62 -1 7 C-2.98 7 -4.96 7 -7 7 C-7 6.34 -7 5.68 -7 5 C-7.66 5 -8.32 5 -9 5 C-9 3.68 -9 2.36 -9 1 C-5.57367167 -0.61798838 -3.61944899 -1.34053666 0 0 Z " fill="#7E88BA" transform="translate(63,80)"/>
<path d="M0 0 C0.66 0 1.32 0 2 0 C2 0.66 2 1.32 2 2 C2.66 2.33 3.32 2.66 4 3 C4 6.63 4 10.26 4 14 C2.02 14 0.04 14 -2 14 C-1.34 12.68 -0.68 11.36 0 10 C-1.134375 9.87625 -2.26875 9.7525 -3.4375 9.625 C-5.2009375 9.315625 -5.2009375 9.315625 -7 9 C-7.33 8.34 -7.66 7.68 -8 7 C-1.25 6.875 -1.25 6.875 1 8 C0.67 5.36 0.34 2.72 0 0 Z " fill="#80192C" transform="translate(44,71)"/>
<path d="M0 0 C4.94790177 -0.0493651 9.89566083 -0.08570269 14.84375 -0.10986328 C16.52769466 -0.11993317 18.21162179 -0.13358988 19.89550781 -0.15087891 C22.31319501 -0.17508426 24.73065143 -0.18647296 27.1484375 -0.1953125 C27.9036972 -0.20563507 28.65895691 -0.21595764 29.43710327 -0.22659302 C31.2929398 -0.22699318 33.1481928 -0.12222716 35 0 C35.66 0.66 36.32 1.32 37 2 C32.39875287 2.94440133 28.31187933 2.98885103 23.6328125 2.66015625 C22.95322479 2.61434921 22.27363708 2.56854218 21.57345581 2.52134705 C19.42345964 2.37493292 17.27429207 2.21887786 15.125 2.0625 C13.65889837 1.96094833 12.19275269 1.86003053 10.7265625 1.75976562 C7.1505029 1.51383765 3.57512032 1.25926445 0 1 C0 0.67 0 0.34 0 0 Z " fill="#3E47B8" transform="translate(37,109)"/>
<path d="M0 0 C0.66 0.33 1.32 0.66 2 1 C2.625 3.5625 2.625 3.5625 3 6 C2.01 6.66 1.02 7.32 0 8 C-0.58687784 11.34613512 -0.58687784 11.34613512 -0.6875 15.125 C-0.75324219 16.40632813 -0.81898437 17.68765625 -0.88671875 19.0078125 C-0.92410156 19.99523437 -0.96148437 20.98265625 -1 22 C-4.11269171 17.33096244 -3.48651426 12.47152272 -3 7 C-2.24611862 4.38538251 -1.31092155 2.40335617 0 0 Z " fill="#611950" transform="translate(38,52)"/>
<path d="M0 0 C2.475 0.495 2.475 0.495 5 1 C5.33 1.99 5.66 2.98 6 4 C7.32 4.66 8.64 5.32 10 6 C5.545 6.495 5.545 6.495 1 7 C0.67 4.69 0.34 2.38 0 0 Z " fill="#AFB9DE" transform="translate(56,87)"/>
<path d="M0 0 C2.97 1.98 5.94 3.96 9 6 C8.01 6.33 7.02 6.66 6 7 C6 7.66 6 8.32 6 9 C4.68 9 3.36 9 2 9 C1.896875 8.360625 1.79375 7.72125 1.6875 7.0625 C1.460625 6.381875 1.23375 5.70125 1 5 C0.01 4.67 -0.98 4.34 -2 4 C-1.34 2.68 -0.68 1.36 0 0 Z " fill="#4B4CA4" transform="translate(20,98)"/>
<path d="M0 0 C2 2 2 2 2.375 5.1875 C1.90698931 9.94560869 0.72677747 12.10460361 -2 16 C-2.99 16.33 -3.98 16.66 -5 17 C-3.125 12.25 -3.125 12.25 -2 10 C-1.34 10 -0.68 10 0 10 C0 6.7 0 3.4 0 0 Z " fill="#010122" transform="translate(97,48)"/>
<path d="M0 0 C1.72985242 0.11512153 3.45888751 0.24255677 5.1875 0.375 C6.15042969 0.44460937 7.11335938 0.51421875 8.10546875 0.5859375 C11.01508938 1.00215853 13.32890774 1.79874096 16 3 C15.67 3.66 15.34 4.32 15 5 C14.113125 4.67 13.22625 4.34 12.3125 4 C9.26050138 3.07864193 7.1454732 2.65050298 4 3 C3.34 3.66 2.68 4.32 2 5 C1.01 5 0.02 5 -1 5 C-1 4.34 -1 3.68 -1 3 C-1.66 2.67 -2.32 2.34 -3 2 C-2.01 2 -1.02 2 0 2 C0 1.34 0 0.68 0 0 Z " fill="#9EB4EA" transform="translate(59,18)"/>
<path d="M0 0 C0.33 0 0.66 0 1 0 C1.33 2.97 1.66 5.94 2 9 C2.99 9.33 3.98 9.66 5 10 C4.34 10 3.68 10 3 10 C3.33 11.98 3.66 13.96 4 16 C2.68 16.99 1.36 17.98 0 19 C-0.33 18.01 -0.66 17.02 -1 16 C-0.01 16 0.98 16 2 16 C1.67 14.845 1.34 13.69 1 12.5 C-0.08401934 8.22499413 -0.15701377 4.39638547 0 0 Z " fill="#957A4E" transform="translate(55,85)"/>
<path d="M0 0 C0.33 0.66 0.66 1.32 1 2 C2.32 1.67 3.64 1.34 5 1 C4.6875 3.375 4.6875 3.375 4 6 C3.01 6.66 2.02 7.32 1 8 C-0.42944945 5.64561267 -1.08661261 4.51967567 -0.625 1.75 C-0.41875 1.1725 -0.2125 0.595 0 0 Z " fill="#D0DCF7" transform="translate(35,25)"/>
<path d="M0 0 C0.99 0 1.98 0 3 0 C3 0.66 3 1.32 3 2 C3.66 1.67 4.32 1.34 5 1 C6.99960012 0.960008 9.00047242 0.95653201 11 1 C8.14521674 2.90318884 6.58058692 3.4619099 3.3125 4.125 C2.50425781 4.29257813 1.69601563 4.46015625 0.86328125 4.6328125 C0.24839844 4.75398438 -0.36648437 4.87515625 -1 5 C-0.67 3.35 -0.34 1.7 0 0 Z " fill="#7C234E" transform="translate(55,76)"/>
<path d="M0 0 C2.97 0.495 2.97 0.495 6 1 C6 1.66 6 2.32 6 3 C3.69 4.32 1.38 5.64 -1 7 C-1.33 6.01 -1.66 5.02 -2 4 C-1.01 3.67 -0.02 3.34 1 3 C0.67 2.01 0.34 1.02 0 0 Z " fill="#13000F" transform="translate(28,73)"/>
<path d="M0 0 C2.51751452 3.77627177 1.83154613 4.67596013 1 9 C0.96237049 11.33302989 0.95334266 13.66713319 1 16 C-1 14 -1 14 -1.23046875 11.25 C-1.21628906 10.1775 -1.20210937 9.105 -1.1875 8 C-1.18105469 6.9275 -1.17460938 5.855 -1.16796875 4.75 C-1 2 -1 2 0 0 Z " fill="#8AA3E5" transform="translate(36,33)"/>
<path d="M0 0 C1.98 0 3.96 0 6 0 C5.67 1.65 5.34 3.3 5 5 C4.34 5 3.68 5 3 5 C2.34 6.32 1.68 7.64 1 9 C1.33 6.36 1.66 3.72 2 1 C1.34 0.67 0.68 0.34 0 0 Z " fill="#121736" transform="translate(74,91)"/>
<path d="M0 0 C3.3 0.33 6.6 0.66 10 1 C10 1.33 10 1.66 10 2 C5.38 2.66 0.76 3.32 -4 4 C-4 3.34 -4 2.68 -4 2 C-2.68 2 -1.36 2 0 2 C0 1.34 0 0.68 0 0 Z " fill="#A1AFD4" transform="translate(72,89)"/>
<path d="M0 0 C1.32 0.33 2.64 0.66 4 1 C2.30820672 3.04219706 1.36272334 3.91793306 -1.26171875 4.51171875 C-2.06222656 4.56972656 -2.86273438 4.62773438 -3.6875 4.6875 C-4.49574219 4.75324219 -5.30398437 4.81898437 -6.13671875 4.88671875 C-7.05904297 4.94279297 -7.05904297 4.94279297 -8 5 C-5.4345406 2.4345406 -3.52313332 2.45953913 0 2 C0 1.34 0 0.68 0 0 Z " fill="#8177B0" transform="translate(80,71)"/>
<path d="M0 0 C2.97 0.99 5.94 1.98 9 3 C9 3.66 9 4.32 9 5 C7.68 5.33 6.36 5.66 5 6 C3.35 4.02 1.7 2.04 0 0 Z " fill="#A47D43" transform="translate(40,92)"/>
<path d="M0 0 C2.475 0.495 2.475 0.495 5 1 C4.34 2.32 3.68 3.64 3 5 C2.01 4.67 1.02 4.34 0 4 C0 2.68 0 1.36 0 0 Z " fill="#A5B5DA" transform="translate(56,87)"/>
<path d="M0 0 C2.52259061 1.97420135 2.9929808 2.96745642 3.6875 6.1875 C3.790625 7.115625 3.89375 8.04375 4 9 C3.01 8.34 2.02 7.68 1 7 C0.3125 3.375 0.3125 3.375 0 0 Z " fill="#030627" transform="translate(18,90)"/>
<path d="M0 0 C0.66 0 1.32 0 2 0 C0.55746343 3.36591866 -1.33264727 5.51047079 -4 8 C-4 6.68 -4 5.36 -4 4 C-3.34 4 -2.68 4 -2 4 C-1.34 2.68 -0.68 1.36 0 0 Z " fill="#A3B4FB" transform="translate(100,79)"/>
<path d="M0 0 C0 0.66 0 1.32 0 2 C-0.66 2 -1.32 2 -2 2 C-1.34 3.65 -0.68 5.3 0 7 C-1.65 6.01 -3.3 5.02 -5 4 C-4.67 3.01 -4.34 2.02 -4 1 C-2 0 -2 0 0 0 Z " fill="#5B112C" transform="translate(32,78)"/>
</svg>
