<svg viewBox="0 0 200 200" width="100%" height="100%">
  <path d="M153 102.607C151 100.999 143.5 84.499 142.5 79.999C141.5 75.499 117.5 64.499 112 64.499C106.5 64.499 87.2844 81.5299 84.5001 84.999C81.7157 88.4681 95.8538 114.971 92.0001 117.999C88.1463 121.027 73.5229 127.67 72.2648 126.104C71.0067 124.537 70.9209 112.399 70.9209 112.399C70.9209 112.399 66.918 120.5 65.0308 124.537C63.1437 128.574 66.918 138.919 66.918 138.919C66.918 138.919 82.2076 151.974 95.8538 153.987C109.5 156 122.235 144.601 127.542 131.219C131 122.5 120.939 109.995 126 107.999C131.061 106.003 144.129 108.034 146.564 107.266C149 106.499 153 102.607 153 102.607Z" fill="black"/>
  <path d="M134.85 94.6L140.25 103H125.25L134.85 101.8L128.85 100L125.25 91L134.85 94.6Z" fill="white"/>
  <path d="M130.65 98.5357L130.05 95.7982L126.45 92.1982L134.25 95.7982L136.65 100.598L130.65 98.5357Z" fill="black"/>
  <circle cx="133.393" cy="96.5718" r="1.28571" fill="white"/>
</svg>
