<svg viewBox="0 0 200 200" width="100%" height="100%">
    <path d="M156.294 111.065C154.294 109.458 147.463 90.8854 146.463 86.3854C145.463 81.8854 121.899 70.0478 116.595 68.8986C111.291 67.7494 92 85.7794 89.0952 89.3986C86.1904 93.0178 96.554 115.569 92.7003 118.597C88.8465 121.625 82.7568 127.615 76.9466 124.46C71.1363 121.306 81.41 112.892 81.41 112.892C81.41 112.892 68.8128 113.831 67.9286 122.821C67.0443 131.81 71.1363 137.581 71.1363 137.581C71.1363 137.581 80.5235 152.746 95.8537 153.987C111.184 155.227 125.041 143.416 129.226 135.298C133.412 127.181 125.529 113.062 130.589 111.065C135.65 109.069 145.65 116.492 148.086 115.725C150.521 114.958 156.294 111.065 156.294 111.065Z" fill="black"></path>
    <path d="M141.136 99.7736L146.536 108.174H131.536L141.136 106.974L135.136 105.174L131.536 96.1736L141.136 99.7736Z" fill="white"></path>
    <path d="M136.936 103.71L136.336 100.972L132.736 97.3723L140.536 100.972L142.936 105.772L136.936 103.71Z" fill="black"></path>
    <circle cx="139.679" cy="101.745" r="1.28571" fill="white"></circle>
</svg>
